<svg xmlns="http://www.w3.org/2000/svg" width="40" height="40" viewBox="0 0 40 40">
  <defs>
    <clipPath id="songsSmallClip">
      <rect x="4" y="6" width="32" height="28" rx="5"/>
    </clipPath>
  </defs>
  <rect x="4" y="6" width="32" height="28" rx="5" fill="#fff"/>
  <g clip-path="url(#songsSmallClip)">
    <rect x="4" y="6" width="7" height="28" fill="#F4F6FB"/>
    <g stroke="#E6E8F0" stroke-width="0.8">
      <line x1="11" y1="15" x2="36" y2="15"/>
      <line x1="11" y1="22" x2="36" y2="22"/>
      <line x1="11" y1="29" x2="36" y2="29"/>
    </g>
    <g fill="#2C2C2C">
      <rect x="4" y="12.5" width="4.5" height="3" rx="1"/>
      <rect x="4" y="23.5" width="4.5" height="3" rx="1"/>
    </g>
    <line x1="22" y1="6" x2="22" y2="34" stroke="#4C97FF" stroke-width="1" opacity="0.45"/>
    <g stroke-width="0.9">
      <rect x="12" y="24" width="6" height="4" rx="1.5" fill="#FF6B6B" stroke="#B84F4F"/>
      <rect x="18" y="17" width="6" height="4" rx="1.5" fill="#FFCC4F" stroke="#B89337"/>
      <rect x="18" y="10" width="6" height="4" rx="1.5" fill="#944FE9" stroke="#6A37A5"/>
      <rect x="26" y="20" width="6" height="4" rx="1.5" fill="#4FE974" stroke="#37A554"/>
    </g>
  </g>
  <rect x="4" y="6" width="32" height="28" rx="5" fill="none" stroke="#4C97FF" stroke-width="1.4"/>
</svg>
